<svg xmlns="http://www.w3.org/2000/svg" viewBox="0 0 522.04 456"><defs><style>.cls-1{fill:#fff;}.cls-2{fill:#111;}.cls-3{fill:#cc000a;}</style></defs><g id="Layer_2" data-name="Layer 2"><g id="Layer_1-2" data-name="Layer 1"><rect class="cls-1" x="33.02" y="-33.02" width="456" height="522.04" transform="translate(489.02 -33.02) rotate(90)"/><path class="cls-2" d="M228.89,249.58V256H202.7V218.29h25.71v6.43H210v9.08h15.83v5.95H210v9.83Z"/><path class="cls-2" d="M257.1,228.17a7.68,7.68,0,0,0-1.36-1,19.24,19.24,0,0,0-2.39-1.25,17.62,17.62,0,0,0-3-1.06,13,13,0,0,0-3.35-.43,7.65,7.65,0,0,0-4.49,1.09,3.62,3.62,0,0,0-1.51,3.14,3.17,3.17,0,0,0,1,2.43,7.61,7.61,0,0,0,2.86,1.53c1.28.43,2.87.89,4.79,1.38a34,34,0,0,1,6.45,2.19,10.49,10.49,0,0,1,4.2,3.39,9.57,9.57,0,0,1,1.46,5.57,10.7,10.7,0,0,1-1.12,5.08,9.6,9.6,0,0,1-3.05,3.46,13,13,0,0,1-4.46,1.95,22.58,22.58,0,0,1-5.34.61,27.52,27.52,0,0,1-5.63-.58,28.71,28.71,0,0,1-5.4-1.68,26.18,26.18,0,0,1-4.8-2.63l3.24-6.32a9.64,9.64,0,0,0,1.7,1.25,22.43,22.43,0,0,0,3,1.54,23.56,23.56,0,0,0,3.83,1.3,16.54,16.54,0,0,0,4.19.53,8.36,8.36,0,0,0,4.52-1,3.2,3.2,0,0,0,1.48-2.86,3.25,3.25,0,0,0-1.19-2.67,10.66,10.66,0,0,0-3.37-1.7c-1.46-.47-3.17-1-5.16-1.5a29,29,0,0,1-6-2.28,9.25,9.25,0,0,1-3.56-3.14,8.66,8.66,0,0,1-1.2-4.74,10.92,10.92,0,0,1,1.86-6.48,11.67,11.67,0,0,1,5-4,17.42,17.42,0,0,1,7-1.35,20.72,20.72,0,0,1,5,.59,24.45,24.45,0,0,1,4.44,1.54,27,27,0,0,1,3.72,2.07Z"/><path class="cls-2" d="M267.19,256V218.29h16a10.9,10.9,0,0,1,4.81,1.06,12.08,12.08,0,0,1,3.8,2.87,13.64,13.64,0,0,1,2.47,4,12.49,12.49,0,0,1,.87,4.57,13.5,13.5,0,0,1-1.43,6,12.18,12.18,0,0,1-4.07,4.7,10.57,10.57,0,0,1-6.13,1.8h-9V256Zm7.33-19.07H283a4.16,4.16,0,0,0,2.45-.75,5,5,0,0,0,1.67-2.15,8.13,8.13,0,0,0,.61-3.21,7,7,0,0,0-.72-3.32,5.33,5.33,0,0,0-1.86-2.08,4.61,4.61,0,0,0-2.47-.71h-8.18Z"/><path class="cls-2" d="M316.38,256.27a17.24,17.24,0,0,1-7.49-1.59,18.18,18.18,0,0,1-5.79-4.33,20,20,0,0,1-3.77-6.16,19.25,19.25,0,0,1-1.33-7,18.71,18.71,0,0,1,1.41-7.2,20.42,20.42,0,0,1,3.88-6.11,18.25,18.25,0,0,1,5.87-4.25,17.45,17.45,0,0,1,7.38-1.57,16.73,16.73,0,0,1,7.46,1.65,18.07,18.07,0,0,1,5.77,4.41,20.78,20.78,0,0,1,3.69,6.16,19.58,19.58,0,0,1,0,14.16,19.7,19.7,0,0,1-3.83,6.11,18.07,18.07,0,0,1-5.84,4.22A17.46,17.46,0,0,1,316.38,256.27Zm-10.94-19.12a15.09,15.09,0,0,0,.74,4.73,13,13,0,0,0,2.15,4.06,10.17,10.17,0,0,0,3.46,2.81,10,10,0,0,0,4.64,1,9.78,9.78,0,0,0,4.73-1.09,10.74,10.74,0,0,0,3.43-2.89,12.69,12.69,0,0,0,2.1-4.09,15.79,15.79,0,0,0,.69-4.57,14.78,14.78,0,0,0-.75-4.7,12.7,12.7,0,0,0-2.17-4,10.59,10.59,0,0,0-3.46-2.82,10,10,0,0,0-4.62-1,9.67,9.67,0,0,0-4.65,1.09,10.78,10.78,0,0,0-3.45,2.87,12.55,12.55,0,0,0-2.13,4A15.38,15.38,0,0,0,305.44,237.15Z"/><path class="cls-2" d="M340.44,256V218.29h7.33v31.29H367V256Z"/><path class="cls-2" d="M397.66,249.58V256H371.47V218.29h25.71v6.43H378.8v9.08h15.83v5.95H378.8v9.83Z"/><path class="cls-2" d="M431.55,224.72h-12V256h-7.28V224.72H400.15v-6.43h31.4Z"/><path class="cls-2" d="M443,218.29h7.44L464.32,256h-7.54l-3.14-9.41H439.8L436.65,256H429.1Zm8.91,23.16-5.19-15.56-5.22,15.56Z"/><path class="cls-3" d="M125,199.4v19.23a3.56,3.56,0,0,1-3.56,3.57H100.51v13.18h20.91A3.56,3.56,0,0,1,125,239v18.28a3.56,3.56,0,0,1-3.56,3.57h-44a3.57,3.57,0,0,1-3.57-3.57V199.4a3.56,3.56,0,0,1,3.57-3.56h44A3.56,3.56,0,0,1,125,199.4Z"/><path class="cls-3" d="M178,159.36v19.91a3.38,3.38,0,0,1-3.38,3.39h-6.73a3.38,3.38,0,0,0-3.38,3.38v71.37a3.39,3.39,0,0,1-3.39,3.39H141.55a3.39,3.39,0,0,1-3.39-3.39V186a3.38,3.38,0,0,0-3.38-3.38H77.22a3.39,3.39,0,0,1-3.39-3.39V159.36A3.39,3.39,0,0,1,77.22,156h97.42A3.38,3.38,0,0,1,178,159.36Z"/></g></g></svg>