<svg xmlns="http://www.w3.org/2000/svg" viewBox="0 0 390.49 104.82"><defs><style>.cls-1{fill:#111;}.cls-2{fill:#cc000a;}</style></defs><g id="Layer_2" data-name="Layer 2"><g id="Layer_1-2" data-name="Layer 1"><path class="cls-1" d="M155.06,93.6V100H128.87V62.31h25.71v6.43H136.2v9.08H152v6H136.2V93.6Z"/><path class="cls-1" d="M183.27,72.19a7.68,7.68,0,0,0-1.36-1A19.24,19.24,0,0,0,179.52,70a17.92,17.92,0,0,0-3.05-1.06,13.1,13.1,0,0,0-3.35-.43,7.65,7.65,0,0,0-4.49,1.09,3.62,3.62,0,0,0-1.51,3.14,3.17,3.17,0,0,0,1,2.43,7.61,7.61,0,0,0,2.86,1.53c1.28.43,2.87.89,4.79,1.38a34.19,34.19,0,0,1,6.45,2.19,10.49,10.49,0,0,1,4.2,3.39,9.57,9.57,0,0,1,1.46,5.57,10.82,10.82,0,0,1-1.12,5.08,9.6,9.6,0,0,1-3.05,3.46,13,13,0,0,1-4.47,2,22.44,22.44,0,0,1-5.33.61,27.69,27.69,0,0,1-5.64-.58A28.84,28.84,0,0,1,162.84,98,25.86,25.86,0,0,1,158,95.4l3.24-6.32a9.64,9.64,0,0,0,1.7,1.25,22.43,22.43,0,0,0,3,1.54,23.77,23.77,0,0,0,3.82,1.3,16.68,16.68,0,0,0,4.2.53,8.36,8.36,0,0,0,4.52-1A3.2,3.2,0,0,0,180,89.87a3.25,3.25,0,0,0-1.19-2.67,10.66,10.66,0,0,0-3.37-1.7c-1.46-.47-3.17-1-5.16-1.5a29,29,0,0,1-6-2.28,9.25,9.25,0,0,1-3.56-3.14,8.66,8.66,0,0,1-1.2-4.74,10.92,10.92,0,0,1,1.86-6.48,11.67,11.67,0,0,1,5-4,17.34,17.34,0,0,1,7-1.35,20.8,20.8,0,0,1,5,.59,24.45,24.45,0,0,1,4.44,1.54,27,27,0,0,1,3.72,2.07Z"/><path class="cls-1" d="M193.36,100V62.31h16a10.93,10.93,0,0,1,4.81,1.06,12.08,12.08,0,0,1,3.8,2.87,13.64,13.64,0,0,1,2.47,4,12.49,12.49,0,0,1,.87,4.57,13.5,13.5,0,0,1-1.43,6,12.18,12.18,0,0,1-4.07,4.7,10.57,10.57,0,0,1-6.13,1.8h-9V100ZM200.69,81h8.5a4.1,4.1,0,0,0,2.44-.75,4.92,4.92,0,0,0,1.68-2.15,8.13,8.13,0,0,0,.61-3.21,7,7,0,0,0-.72-3.32,5.33,5.33,0,0,0-1.86-2.08,4.61,4.61,0,0,0-2.47-.71h-8.18Z"/><path class="cls-1" d="M242.55,100.29a17.24,17.24,0,0,1-7.49-1.59,18.18,18.18,0,0,1-5.79-4.33,20,20,0,0,1-3.77-6.16,19.25,19.25,0,0,1-1.33-7,18.71,18.71,0,0,1,1.41-7.2,20.42,20.42,0,0,1,3.88-6.11,18.32,18.32,0,0,1,5.86-4.25A17.52,17.52,0,0,1,242.71,62a16.73,16.73,0,0,1,7.46,1.65,18.07,18.07,0,0,1,5.77,4.41,20.78,20.78,0,0,1,3.69,6.16,19.44,19.44,0,0,1,1.3,7,19.17,19.17,0,0,1-1.36,7.15,19.49,19.49,0,0,1-3.82,6.11,18.07,18.07,0,0,1-5.84,4.22A17.46,17.46,0,0,1,242.55,100.29ZM231.61,81.17a15.09,15.09,0,0,0,.74,4.73A13,13,0,0,0,234.5,90,10.23,10.23,0,0,0,238,92.77a10.07,10.07,0,0,0,4.65,1,9.78,9.78,0,0,0,4.73-1.09,10.74,10.74,0,0,0,3.43-2.89,12.67,12.67,0,0,0,2.09-4.09,15.8,15.8,0,0,0,.7-4.57,14.78,14.78,0,0,0-.75-4.7,12.53,12.53,0,0,0-2.18-4,10.46,10.46,0,0,0-3.45-2.82,10,10,0,0,0-4.62-1,9.67,9.67,0,0,0-4.65,1.09,10.78,10.78,0,0,0-3.45,2.87,12.55,12.55,0,0,0-2.13,4A15.38,15.38,0,0,0,231.61,81.17Z"/><path class="cls-1" d="M266.61,100V62.31h7.33V93.6h19.23V100Z"/><path class="cls-1" d="M323.82,93.6V100H297.64V62.31h25.71v6.43H305v9.08H320.8v6H305V93.6Z"/><path class="cls-1" d="M357.72,68.74h-12V100h-7.28V68.74H326.32V62.31h31.4Z"/><path class="cls-1" d="M369.19,62.31h7.44L390.49,100H383l-3.14-9.41H366L362.81,100h-7.54Zm8.91,23.16-5.19-15.56-5.22,15.56Z"/><path class="cls-2" d="M51.15,43.42V62.65a3.56,3.56,0,0,1-3.56,3.57H26.68V79.4H47.59A3.56,3.56,0,0,1,51.15,83v18.28a3.56,3.56,0,0,1-3.56,3.57h-44A3.57,3.57,0,0,1,0,101.25V43.42a3.56,3.56,0,0,1,3.57-3.56h44A3.56,3.56,0,0,1,51.15,43.42Z"/><path class="cls-2" d="M104.19,3.38V23.29a3.39,3.39,0,0,1-3.38,3.39H94.08a3.38,3.38,0,0,0-3.38,3.38v71.37a3.39,3.39,0,0,1-3.39,3.39H67.72a3.39,3.39,0,0,1-3.39-3.39V30.06A3.38,3.38,0,0,0,61,26.68H3.38A3.39,3.39,0,0,1,0,23.29V3.38A3.39,3.39,0,0,1,3.38,0h97.43A3.39,3.39,0,0,1,104.19,3.38Z"/></g></g></svg>