<svg xmlns="http://www.w3.org/2000/svg" viewBox="0 0 261.62 237.09"><defs><style>.cls-1{fill:#cc000a;}</style></defs><g id="Layer_2" data-name="Layer 2"><g id="Layer_1-2" data-name="Layer 1"><path class="cls-1" d="M170.5,69.18V99.82a5.68,5.68,0,0,1-5.68,5.68H131.5v21h33.32a5.68,5.68,0,0,1,5.68,5.68v29.14a5.68,5.68,0,0,1-5.68,5.68H94.69A5.69,5.69,0,0,1,89,161.32V69.18a5.69,5.69,0,0,1,5.69-5.68h70.13A5.68,5.68,0,0,1,170.5,69.18Z" transform="translate(-43.87)"/><path class="cls-1" d="M255,5.39V37.11a5.39,5.39,0,0,1-5.39,5.39H238.89a5.39,5.39,0,0,0-5.39,5.39V161.61a5.39,5.39,0,0,1-5.39,5.39H196.89a5.39,5.39,0,0,1-5.39-5.39V47.89a5.39,5.39,0,0,0-5.39-5.39H94.39A5.39,5.39,0,0,1,89,37.11V5.39A5.39,5.39,0,0,1,94.39,0H249.61A5.39,5.39,0,0,1,255,5.39Z" transform="translate(-43.87)"/><path d="M70.06,230.4v6.43H43.87V199.11H69.58v6.43H51.2v9.08H67v5.95H51.2v9.83Z" transform="translate(-43.87)"/><path d="M98.27,209a8.88,8.88,0,0,0-1.36-1,20.69,20.69,0,0,0-2.39-1.25,18.5,18.5,0,0,0-3-1.06,13.56,13.56,0,0,0-3.35-.43,7.72,7.72,0,0,0-4.49,1.09,3.62,3.62,0,0,0-1.51,3.14,3.18,3.18,0,0,0,1,2.44,7.75,7.75,0,0,0,2.86,1.53c1.28.42,2.87.88,4.79,1.37a33.24,33.24,0,0,1,6.45,2.2,10.47,10.47,0,0,1,4.2,3.38,9.57,9.57,0,0,1,1.46,5.57,10.79,10.79,0,0,1-1.12,5.08,9.6,9.6,0,0,1-3,3.46,13.26,13.26,0,0,1-4.46,2,23.12,23.12,0,0,1-5.34.6,27.52,27.52,0,0,1-5.63-.58,29.44,29.44,0,0,1-5.4-1.67,27.44,27.44,0,0,1-4.8-2.63l3.24-6.32a9.72,9.72,0,0,0,1.7,1.24,21.3,21.3,0,0,0,3,1.54A24.56,24.56,0,0,0,84.78,230a17,17,0,0,0,4.19.53,8.46,8.46,0,0,0,4.52-1A3.21,3.21,0,0,0,95,226.67,3.26,3.26,0,0,0,93.78,224a10.66,10.66,0,0,0-3.37-1.69c-1.46-.48-3.17-1-5.16-1.51a29.6,29.6,0,0,1-6-2.27,9.36,9.36,0,0,1-3.56-3.15,8.63,8.63,0,0,1-1.2-4.73,10.93,10.93,0,0,1,1.86-6.49,11.65,11.65,0,0,1,5-4,17.39,17.39,0,0,1,7-1.35,20.73,20.73,0,0,1,5,.58A24.45,24.45,0,0,1,97.79,201a27,27,0,0,1,3.72,2.07Z" transform="translate(-43.87)"/><path d="M108.36,236.83V199.11h16a10.91,10.91,0,0,1,4.81,1.07A11.9,11.9,0,0,1,133,203a13.77,13.77,0,0,1,2.47,4,12.49,12.49,0,0,1,.87,4.57,13.5,13.5,0,0,1-1.43,6,12.1,12.1,0,0,1-4.07,4.7,10.57,10.57,0,0,1-6.13,1.81h-9v12.64Zm7.33-19.07h8.5a4.17,4.17,0,0,0,2.44-.74,5,5,0,0,0,1.68-2.16,8.09,8.09,0,0,0,.61-3.21,7,7,0,0,0-.72-3.32,5.37,5.37,0,0,0-1.86-2.07,4.53,4.53,0,0,0-2.47-.72h-8.18Z" transform="translate(-43.87)"/><path d="M157.55,237.09a17.24,17.24,0,0,1-7.49-1.59,18,18,0,0,1-5.79-4.33A19.93,19.93,0,0,1,140.5,225a19.21,19.21,0,0,1-1.33-7,18.78,18.78,0,0,1,1.41-7.2,20.42,20.42,0,0,1,3.88-6.11,18.4,18.4,0,0,1,5.87-4.25,17.44,17.44,0,0,1,7.38-1.56,16.87,16.87,0,0,1,7.46,1.64,18.07,18.07,0,0,1,5.77,4.41,20.78,20.78,0,0,1,3.69,6.16,19.54,19.54,0,0,1-3.88,20.27,17.92,17.92,0,0,1-5.84,4.22A17.46,17.46,0,0,1,157.55,237.09ZM146.61,218a15,15,0,0,0,.74,4.73,12.94,12.94,0,0,0,2.15,4.06,10,10,0,0,0,8.1,3.85,9.78,9.78,0,0,0,4.73-1.09,10.74,10.74,0,0,0,3.43-2.89,12.59,12.59,0,0,0,2.1-4.09,15.74,15.74,0,0,0,.69-4.57,14.82,14.82,0,0,0-.75-4.7,12.8,12.8,0,0,0-2.17-4,10.69,10.69,0,0,0-3.46-2.81,10,10,0,0,0-4.62-1,9.67,9.67,0,0,0-4.65,1.09,10.91,10.91,0,0,0-3.45,2.87,12.6,12.6,0,0,0-2.13,4A15.27,15.27,0,0,0,146.61,218Z" transform="translate(-43.87)"/><path d="M181.61,236.83V199.11h7.33V230.4h19.23v6.43Z" transform="translate(-43.87)"/><path d="M238.83,230.4v6.43H212.64V199.11h25.71v6.43H220v9.08H235.8v5.95H220v9.83Z" transform="translate(-43.87)"/><path d="M272.72,205.54h-12v31.29h-7.28V205.54H241.32v-6.43h31.4Z" transform="translate(-43.87)"/><path d="M284.19,199.11h7.44l13.86,37.72H298l-3.14-9.4H281l-3.15,9.4h-7.55Zm8.91,23.16-5.19-15.56-5.22,15.56Z" transform="translate(-43.87)"/></g></g></svg>